<?xml version="1.0" encoding="UTF-8" standalone="no"?>
<svg
   xmlns:osb="http://www.openswatchbook.org/uri/2009/osb"
   xmlns:dc="http://purl.org/dc/elements/1.1/"
   xmlns:cc="http://creativecommons.org/ns#"
   xmlns:rdf="http://www.w3.org/1999/02/22-rdf-syntax-ns#"
   xmlns:svg="http://www.w3.org/2000/svg"
   xmlns="http://www.w3.org/2000/svg"
   xmlns:xlink="http://www.w3.org/1999/xlink"
   xmlns:sodipodi="http://sodipodi.sourceforge.net/DTD/sodipodi-0.dtd"
   xmlns:inkscape="http://www.inkscape.org/namespaces/inkscape"
   width="260"
   height="300"
   id="svg2"
   version="1.1"
   inkscape:version="0.91 r13725"
   sodipodi:docname="Star_of_David.svg">
  <metadata
     id="metadata11">
    <rdf:RDF>
      <cc:Work
         rdf:about="">
        <dc:format>image/svg+xml</dc:format>
        <dc:type
           rdf:resource="http://purl.org/dc/dcmitype/StillImage" />
        <dc:title></dc:title>
      </cc:Work>
    </rdf:RDF>
  </metadata>
  <defs
     id="defs9">
    <linearGradient
       id="linearGradient4151"
       osb:paint="solid">
      <stop
         style="stop-color:#000000;stop-opacity:1;"
         offset="0"
         id="stop4153" />
    </linearGradient>
    <linearGradient
       id="linearGradient4145"
       osb:paint="solid">
      <stop
         style="stop-color:#000000;stop-opacity:1;"
         offset="0"
         id="stop4147" />
    </linearGradient>
  </defs>
  <sodipodi:namedview
     pagecolor="#ffffff"
     bordercolor="#666666"
     borderopacity="1"
     objecttolerance="10"
     gridtolerance="10"
     guidetolerance="10"
     inkscape:pageopacity="0"
     inkscape:pageshadow="2"
     inkscape:window-width="1438"
     inkscape:window-height="992"
     id="namedview7"
     showgrid="false"
     inkscape:zoom="0.78666667"
     inkscape:cx="130"
     inkscape:cy="150"
     inkscape:window-x="174"
     inkscape:window-y="0"
     inkscape:window-maximized="0"
     inkscape:current-layer="svg2" />
  <path
     d="M22,87 130,275 238,87z"
     fill="none"
     stroke="blue"
     stroke-width="24"
     id="t"
     style="stroke:#000000;stroke-opacity:1" />
  <use
     xlink:href="#t"
     transform="matrix(1,0,0,-1,0,300)"
     id="use5" />
  <path
     style="opacity:0;fill:#000000;fill-opacity:1;fill-rule:nonzero;stroke-width:100;stroke-miterlimit:4;stroke-dasharray:none"
     d="m 124.44836,288.16406 c -3.02922,-5.22886 -12.37209,-21.55836 -20.76192,-36.28777 l -15.254237,-26.78075 -42.902542,-0.0478 c -23.596398,-0.0263 -42.9025424,-0.31141 -42.9025424,-0.63364 0,-0.32225 9.4385594,-17.01111 20.9745764,-37.08637 C 35.137712,167.25249 44.576271,150.455 44.576271,150 c 0,-0.455 -9.438559,-17.25249 -20.974576,-37.32775 C 12.065678,92.596993 2.6271186,75.908129 2.6271186,75.58589 c 0,-0.32224 19.3061444,-0.606895 42.9025424,-0.632567 L 88.432203,74.906647 107.96127,40.678041 C 118.70225,21.852308 128.14081,5.5845153 128.93584,4.5273905 130.113,2.9621734 134.23553,9.3223116 151.14175,38.786106 l 20.76039,36.180762 42.90878,0.334363 42.90878,0.334362 L 236.34261,112.8178 214.96553,150 l 21.37708,37.1822 21.37709,37.18221 -42.90013,0.33434 -42.90013,0.33436 -20.62249,35.89446 c -11.34238,19.74196 -20.78415,36.0855 -20.98171,36.31899 -0.19755,0.23348 -2.83766,-3.85364 -5.86688,-9.0825 z M 137.83267,238.5646 C 141.77469,231.6925 145,225.82916 145,225.53494 145,225.24072 138.08894,225 129.64208,225 l -15.35791,0 2.47773,4.13136 c 1.36275,2.27224 4.89269,8.32286 7.84431,13.44581 2.95161,5.12294 5.5224,9.12718 5.71285,8.8983 0.19046,-0.22888 3.57157,-6.03877 7.51361,-12.91087 z M 73.813559,201.28809 c 0,-1.50211 -14.598653,-27.09239 -15.468024,-27.11422 -1.284508,-0.0323 -16.174007,26.38749 -15.340861,27.22063 1.013784,1.01378 30.808885,0.91088 30.808885,-0.10641 z M 173.67846,176.05932 188.53671,150 173.67846,123.94068 158.82021,97.881356 l -28.36462,0 c -21.23572,0 -28.69816,0.401879 -29.69168,1.599004 -0.72988,0.87945 -7.629929,12.60615 -15.333435,26.05932 L 71.424099,150 85.430475,174.46032 c 7.703506,13.45317 14.603555,25.17987 15.333435,26.05932 0.99352,1.19713 8.45596,1.599 29.69168,1.599 l 28.36462,0 14.85825,-26.05932 z m 43.77917,25.22877 c 0,-1.50211 -14.59865,-27.09239 -15.46803,-27.11422 -0.7517,-0.0189 -16.31163,26.15234 -16.31163,27.43555 0,0.28008 7.15042,0.50922 15.88983,0.50922 8.7394,0 15.88983,-0.37375 15.88983,-0.83055 z M 66.504237,112.67363 c 4.020127,-7.22214 7.309322,-13.504917 7.309322,-13.96172 0,-1.017286 -29.795101,-1.120199 -30.808885,-0.106415 -0.833146,0.833146 14.056353,27.252885 15.340861,27.220635 0.467159,-0.0117 4.138575,-5.93035 8.158702,-13.1525 z m 143.644073,0 c 4.02012,-7.22214 7.30932,-13.504917 7.30932,-13.96172 0,-0.456805 -7.15043,-0.830554 -15.88983,-0.830554 -8.73941,0 -15.88983,0.229148 -15.88983,0.509218 0,1.283218 15.55993,27.454436 16.31163,27.435556 0.46716,-0.0117 4.13858,-5.93035 8.15871,-13.1525 z M 145,74.465059 c 0,-0.47865 -13.83402,-24.922698 -14.68094,-25.940529 -0.19045,-0.228883 -2.76124,3.775355 -5.71285,8.898305 -2.95162,5.122948 -6.48156,11.173563 -7.84431,13.445809 L 114.28417,75 129.64208,75 C 138.08894,75 145,74.759277 145,74.465059 Z"
     id="path4139"
     inkscape:connector-curvature="0" />
  <path
     style="opacity:0;fill:#000000;fill-opacity:1;fill-rule:nonzero;stroke-width:100;stroke-miterlimit:4;stroke-dasharray:none"
     d="m 124.44836,288.16406 c -3.02922,-5.22886 -12.37209,-21.55836 -20.76192,-36.28777 l -15.254237,-26.78075 -42.902542,-0.0478 c -23.596398,-0.0263 -42.9025424,-0.31141 -42.9025424,-0.63364 0,-0.32225 9.4385594,-17.01111 20.9745764,-37.08637 C 35.137712,167.25249 44.576271,150.455 44.576271,150 c 0,-0.455 -9.438559,-17.25249 -20.974576,-37.32775 C 12.065678,92.596993 2.6271186,75.908129 2.6271186,75.58589 c 0,-0.32224 19.3061444,-0.606895 42.9025424,-0.632567 L 88.432203,74.906647 107.96127,40.678041 C 118.70225,21.852308 128.14081,5.5845153 128.93584,4.5273905 130.113,2.9621734 134.23553,9.3223116 151.14175,38.786106 l 20.76039,36.180762 42.90878,0.334363 42.90878,0.334362 L 236.34261,112.8178 214.96553,150 l 21.37708,37.1822 21.37709,37.18221 -42.90013,0.33434 -42.90013,0.33436 -20.62249,35.89446 c -11.34238,19.74196 -20.78415,36.0855 -20.98171,36.31899 -0.19755,0.23348 -2.83766,-3.85364 -5.86688,-9.0825 z M 137.83267,238.5646 C 141.77469,231.6925 145,225.82916 145,225.53494 145,225.24072 138.08894,225 129.64208,225 l -15.35791,0 2.47773,4.13136 c 1.36275,2.27224 4.89269,8.32286 7.84431,13.44581 2.95161,5.12294 5.5224,9.12718 5.71285,8.8983 0.19046,-0.22888 3.57157,-6.03877 7.51361,-12.91087 z M 73.813559,201.28809 c 0,-1.50211 -14.598653,-27.09239 -15.468024,-27.11422 -1.284508,-0.0323 -16.174007,26.38749 -15.340861,27.22063 1.013784,1.01378 30.808885,0.91088 30.808885,-0.10641 z M 173.67846,176.05932 188.53671,150 173.67846,123.94068 158.82021,97.881356 l -28.36462,0 c -21.23572,0 -28.69816,0.401879 -29.69168,1.599004 -0.72988,0.87945 -7.629929,12.60615 -15.333435,26.05932 L 71.424099,150 85.430475,174.46032 c 7.703506,13.45317 14.603555,25.17987 15.333435,26.05932 0.99352,1.19713 8.45596,1.599 29.69168,1.599 l 28.36462,0 14.85825,-26.05932 z m 43.77917,25.22877 c 0,-1.50211 -14.59865,-27.09239 -15.46803,-27.11422 -0.7517,-0.0189 -16.31163,26.15234 -16.31163,27.43555 0,0.28008 7.15042,0.50922 15.88983,0.50922 8.7394,0 15.88983,-0.37375 15.88983,-0.83055 z M 66.504237,112.67363 c 4.020127,-7.22214 7.309322,-13.504917 7.309322,-13.96172 0,-1.017286 -29.795101,-1.120199 -30.808885,-0.106415 -0.833146,0.833146 14.056353,27.252885 15.340861,27.220635 0.467159,-0.0117 4.138575,-5.93035 8.158702,-13.1525 z m 143.644073,0 c 4.02012,-7.22214 7.30932,-13.504917 7.30932,-13.96172 0,-0.456805 -7.15043,-0.830554 -15.88983,-0.830554 -8.73941,0 -15.88983,0.229148 -15.88983,0.509218 0,1.283218 15.55993,27.454436 16.31163,27.435556 0.46716,-0.0117 4.13858,-5.93035 8.15871,-13.1525 z M 145,74.465059 c 0,-0.47865 -13.83402,-24.922698 -14.68094,-25.940529 -0.19045,-0.228883 -2.76124,3.775355 -5.71285,8.898305 -2.95162,5.122948 -6.48156,11.173563 -7.84431,13.445809 L 114.28417,75 129.64208,75 C 138.08894,75 145,74.759277 145,74.465059 Z"
     id="path4141"
     inkscape:connector-curvature="0" />
  <path
     style="opacity:0;fill:none;fill-opacity:1;fill-rule:nonzero;stroke-width:100;stroke-miterlimit:4;stroke-dasharray:none"
     d="m 124.44836,288.16406 c -3.02922,-5.22886 -12.37209,-21.55836 -20.76192,-36.28777 l -15.254237,-26.78075 -42.902542,-0.0478 c -23.596398,-0.0263 -42.9025424,-0.31141 -42.9025424,-0.63364 0,-0.32225 9.4385594,-17.01111 20.9745764,-37.08637 C 35.137712,167.25249 44.576271,150.455 44.576271,150 c 0,-0.455 -9.438559,-17.25249 -20.974576,-37.32775 C 12.065678,92.596993 2.6271186,75.908129 2.6271186,75.58589 c 0,-0.32224 19.3061444,-0.606895 42.9025424,-0.632567 L 88.432203,74.906647 107.96127,40.678041 C 118.70225,21.852308 128.14081,5.5845153 128.93584,4.5273905 130.113,2.9621734 134.23553,9.3223116 151.14175,38.786106 l 20.76039,36.180762 42.90878,0.334363 42.90878,0.334362 L 236.34261,112.8178 214.96553,150 l 21.37708,37.1822 21.37709,37.18221 -42.90013,0.33434 -42.90013,0.33436 -20.62249,35.89446 c -11.34238,19.74196 -20.78415,36.0855 -20.98171,36.31899 -0.19755,0.23348 -2.83766,-3.85364 -5.86688,-9.0825 z M 137.83267,238.5646 C 141.77469,231.6925 145,225.82916 145,225.53494 145,225.24072 138.08894,225 129.64208,225 l -15.35791,0 2.47773,4.13136 c 1.36275,2.27224 4.89269,8.32286 7.84431,13.44581 2.95161,5.12294 5.5224,9.12718 5.71285,8.8983 0.19046,-0.22888 3.57157,-6.03877 7.51361,-12.91087 z M 73.813559,201.28809 c 0,-1.50211 -14.598653,-27.09239 -15.468024,-27.11422 -1.284508,-0.0323 -16.174007,26.38749 -15.340861,27.22063 1.013784,1.01378 30.808885,0.91088 30.808885,-0.10641 z M 173.67846,176.05932 188.53671,150 173.67846,123.94068 158.82021,97.881356 l -28.36462,0 c -21.23572,0 -28.69816,0.401879 -29.69168,1.599004 -0.72988,0.87945 -7.629929,12.60615 -15.333435,26.05932 L 71.424099,150 85.430475,174.46032 c 7.703506,13.45317 14.603555,25.17987 15.333435,26.05932 0.99352,1.19713 8.45596,1.599 29.69168,1.599 l 28.36462,0 14.85825,-26.05932 z m 43.77917,25.22877 c 0,-1.50211 -14.59865,-27.09239 -15.46803,-27.11422 -0.7517,-0.0189 -16.31163,26.15234 -16.31163,27.43555 0,0.28008 7.15042,0.50922 15.88983,0.50922 8.7394,0 15.88983,-0.37375 15.88983,-0.83055 z M 66.504237,112.67363 c 4.020127,-7.22214 7.309322,-13.504917 7.309322,-13.96172 0,-1.017286 -29.795101,-1.120199 -30.808885,-0.106415 -0.833146,0.833146 14.056353,27.252885 15.340861,27.220635 0.467159,-0.0117 4.138575,-5.93035 8.158702,-13.1525 z m 143.644073,0 c 4.02012,-7.22214 7.30932,-13.504917 7.30932,-13.96172 0,-0.456805 -7.15043,-0.830554 -15.88983,-0.830554 -8.73941,0 -15.88983,0.229148 -15.88983,0.509218 0,1.283218 15.55993,27.454436 16.31163,27.435556 0.46716,-0.0117 4.13858,-5.93035 8.15871,-13.1525 z M 145,74.465059 c 0,-0.47865 -13.83402,-24.922698 -14.68094,-25.940529 -0.19045,-0.228883 -2.76124,3.775355 -5.71285,8.898305 -2.95162,5.122948 -6.48156,11.173563 -7.84431,13.445809 L 114.28417,75 129.64208,75 C 138.08894,75 145,74.759277 145,74.465059 Z"
     id="path4143"
     inkscape:connector-curvature="0" />
  <path
     style="opacity:0;fill:#000000;fill-opacity:0;fill-rule:nonzero;stroke-width:100;stroke-miterlimit:4;stroke-dasharray:none"
     d="m 124.44836,288.16406 c -3.02922,-5.22886 -12.37209,-21.55836 -20.76192,-36.28777 l -15.254237,-26.78075 -42.902542,-0.0478 c -23.596398,-0.0263 -42.9025424,-0.31141 -42.9025424,-0.63364 0,-0.32225 9.4385594,-17.01111 20.9745764,-37.08637 C 35.137712,167.25249 44.576271,150.455 44.576271,150 c 0,-0.455 -9.438559,-17.25249 -20.974576,-37.32775 C 12.065678,92.596993 2.6271186,75.908129 2.6271186,75.58589 c 0,-0.32224 19.3061444,-0.606895 42.9025424,-0.632567 L 88.432203,74.906647 107.96127,40.678041 C 118.70225,21.852308 128.14081,5.5845153 128.93584,4.5273905 130.113,2.9621734 134.23553,9.3223116 151.14175,38.786106 l 20.76039,36.180762 42.90878,0.334363 42.90878,0.334362 L 236.34261,112.8178 214.96553,150 l 21.37708,37.1822 21.37709,37.18221 -42.90013,0.33434 -42.90013,0.33436 -20.62249,35.89446 c -11.34238,19.74196 -20.78415,36.0855 -20.98171,36.31899 -0.19755,0.23348 -2.83766,-3.85364 -5.86688,-9.0825 z M 137.83267,238.5646 C 141.77469,231.6925 145,225.82916 145,225.53494 145,225.24072 138.08894,225 129.64208,225 l -15.35791,0 2.47773,4.13136 c 1.36275,2.27224 4.89269,8.32286 7.84431,13.44581 2.95161,5.12294 5.5224,9.12718 5.71285,8.8983 0.19046,-0.22888 3.57157,-6.03877 7.51361,-12.91087 z M 73.813559,201.28809 c 0,-1.50211 -14.598653,-27.09239 -15.468024,-27.11422 -1.284508,-0.0323 -16.174007,26.38749 -15.340861,27.22063 1.013784,1.01378 30.808885,0.91088 30.808885,-0.10641 z M 173.67846,176.05932 188.53671,150 173.67846,123.94068 158.82021,97.881356 l -28.36462,0 c -21.23572,0 -28.69816,0.401879 -29.69168,1.599004 -0.72988,0.87945 -7.629929,12.60615 -15.333435,26.05932 L 71.424099,150 85.430475,174.46032 c 7.703506,13.45317 14.603555,25.17987 15.333435,26.05932 0.99352,1.19713 8.45596,1.599 29.69168,1.599 l 28.36462,0 14.85825,-26.05932 z m 43.77917,25.22877 c 0,-1.50211 -14.59865,-27.09239 -15.46803,-27.11422 -0.7517,-0.0189 -16.31163,26.15234 -16.31163,27.43555 0,0.28008 7.15042,0.50922 15.88983,0.50922 8.7394,0 15.88983,-0.37375 15.88983,-0.83055 z M 66.504237,112.67363 c 4.020127,-7.22214 7.309322,-13.504917 7.309322,-13.96172 0,-1.017286 -29.795101,-1.120199 -30.808885,-0.106415 -0.833146,0.833146 14.056353,27.252885 15.340861,27.220635 0.467159,-0.0117 4.138575,-5.93035 8.158702,-13.1525 z m 143.644073,0 c 4.02012,-7.22214 7.30932,-13.504917 7.30932,-13.96172 0,-0.456805 -7.15043,-0.830554 -15.88983,-0.830554 -8.73941,0 -15.88983,0.229148 -15.88983,0.509218 0,1.283218 15.55993,27.454436 16.31163,27.435556 0.46716,-0.0117 4.13858,-5.93035 8.15871,-13.1525 z M 145,74.465059 c 0,-0.47865 -13.83402,-24.922698 -14.68094,-25.940529 -0.19045,-0.228883 -2.76124,3.775355 -5.71285,8.898305 -2.95162,5.122948 -6.48156,11.173563 -7.84431,13.445809 L 114.28417,75 129.64208,75 C 138.08894,75 145,74.759277 145,74.465059 Z"
     id="path4157"
     inkscape:connector-curvature="0" />
  <path
     style="opacity:0;fill:#000000;fill-opacity:0;fill-rule:nonzero;stroke-width:100;stroke-miterlimit:4;stroke-dasharray:none"
     d="m 124.44836,288.16406 c -3.02922,-5.22886 -12.37209,-21.55836 -20.76192,-36.28777 l -15.254237,-26.78075 -42.902542,-0.0478 c -23.596398,-0.0263 -42.9025424,-0.31141 -42.9025424,-0.63364 0,-0.32225 9.4385594,-17.01111 20.9745764,-37.08637 C 35.137712,167.25249 44.576271,150.455 44.576271,150 c 0,-0.455 -9.438559,-17.25249 -20.974576,-37.32775 C 12.065678,92.596993 2.6271186,75.908129 2.6271186,75.58589 c 0,-0.32224 19.3061444,-0.606895 42.9025424,-0.632567 L 88.432203,74.906647 107.96127,40.678041 C 118.70225,21.852308 128.14081,5.5845153 128.93584,4.5273905 130.113,2.9621734 134.23553,9.3223116 151.14175,38.786106 l 20.76039,36.180762 42.90878,0.334363 42.90878,0.334362 L 236.34261,112.8178 214.96553,150 l 21.37708,37.1822 21.37709,37.18221 -42.90013,0.33434 -42.90013,0.33436 -20.62249,35.89446 c -11.34238,19.74196 -20.78415,36.0855 -20.98171,36.31899 -0.19755,0.23348 -2.83766,-3.85364 -5.86688,-9.0825 z M 137.83267,238.5646 C 141.77469,231.6925 145,225.82916 145,225.53494 145,225.24072 138.08894,225 129.64208,225 l -15.35791,0 2.47773,4.13136 c 1.36275,2.27224 4.89269,8.32286 7.84431,13.44581 2.95161,5.12294 5.5224,9.12718 5.71285,8.8983 0.19046,-0.22888 3.57157,-6.03877 7.51361,-12.91087 z M 73.813559,201.28809 c 0,-1.50211 -14.598653,-27.09239 -15.468024,-27.11422 -1.284508,-0.0323 -16.174007,26.38749 -15.340861,27.22063 1.013784,1.01378 30.808885,0.91088 30.808885,-0.10641 z M 173.67846,176.05932 188.53671,150 173.67846,123.94068 158.82021,97.881356 l -28.36462,0 c -21.23572,0 -28.69816,0.401879 -29.69168,1.599004 -0.72988,0.87945 -7.629929,12.60615 -15.333435,26.05932 L 71.424099,150 85.430475,174.46032 c 7.703506,13.45317 14.603555,25.17987 15.333435,26.05932 0.99352,1.19713 8.45596,1.599 29.69168,1.599 l 28.36462,0 14.85825,-26.05932 z m 43.77917,25.22877 c 0,-1.50211 -14.59865,-27.09239 -15.46803,-27.11422 -0.7517,-0.0189 -16.31163,26.15234 -16.31163,27.43555 0,0.28008 7.15042,0.50922 15.88983,0.50922 8.7394,0 15.88983,-0.37375 15.88983,-0.83055 z M 66.504237,112.67363 c 4.020127,-7.22214 7.309322,-13.504917 7.309322,-13.96172 0,-1.017286 -29.795101,-1.120199 -30.808885,-0.106415 -0.833146,0.833146 14.056353,27.252885 15.340861,27.220635 0.467159,-0.0117 4.138575,-5.93035 8.158702,-13.1525 z m 143.644073,0 c 4.02012,-7.22214 7.30932,-13.504917 7.30932,-13.96172 0,-0.456805 -7.15043,-0.830554 -15.88983,-0.830554 -8.73941,0 -15.88983,0.229148 -15.88983,0.509218 0,1.283218 15.55993,27.454436 16.31163,27.435556 0.46716,-0.0117 4.13858,-5.93035 8.15871,-13.1525 z M 145,74.465059 c 0,-0.47865 -13.83402,-24.922698 -14.68094,-25.940529 -0.19045,-0.228883 -2.76124,3.775355 -5.71285,8.898305 -2.95162,5.122948 -6.48156,11.173563 -7.84431,13.445809 L 114.28417,75 129.64208,75 C 138.08894,75 145,74.759277 145,74.465059 Z"
     id="path4159"
     inkscape:connector-curvature="0" />
  <path
     style="opacity:0;fill:#000000;fill-opacity:0;fill-rule:nonzero;stroke-width:100;stroke-miterlimit:4;stroke-dasharray:none"
     d="m 124.44836,288.16406 c -3.02922,-5.22886 -12.37209,-21.55836 -20.76192,-36.28777 l -15.254237,-26.78075 -42.902542,-0.0478 c -23.596398,-0.0263 -42.9025424,-0.31141 -42.9025424,-0.63364 0,-0.32225 9.4385594,-17.01111 20.9745764,-37.08637 C 35.137712,167.25249 44.576271,150.455 44.576271,150 c 0,-0.455 -9.438559,-17.25249 -20.974576,-37.32775 C 12.065678,92.596993 2.6271186,75.908129 2.6271186,75.58589 c 0,-0.32224 19.3061444,-0.606895 42.9025424,-0.632567 L 88.432203,74.906647 107.96127,40.678041 C 118.70225,21.852308 128.14081,5.5845153 128.93584,4.5273905 130.113,2.9621734 134.23553,9.3223116 151.14175,38.786106 l 20.76039,36.180762 42.90878,0.334363 42.90878,0.334362 L 236.34261,112.8178 214.96553,150 l 21.37708,37.1822 21.37709,37.18221 -42.90013,0.33434 -42.90013,0.33436 -20.62249,35.89446 c -11.34238,19.74196 -20.78415,36.0855 -20.98171,36.31899 -0.19755,0.23348 -2.83766,-3.85364 -5.86688,-9.0825 z M 137.83267,238.5646 C 141.77469,231.6925 145,225.82916 145,225.53494 145,225.24072 138.08894,225 129.64208,225 l -15.35791,0 2.47773,4.13136 c 1.36275,2.27224 4.89269,8.32286 7.84431,13.44581 2.95161,5.12294 5.5224,9.12718 5.71285,8.8983 0.19046,-0.22888 3.57157,-6.03877 7.51361,-12.91087 z M 73.813559,201.28809 c 0,-1.50211 -14.598653,-27.09239 -15.468024,-27.11422 -1.284508,-0.0323 -16.174007,26.38749 -15.340861,27.22063 1.013784,1.01378 30.808885,0.91088 30.808885,-0.10641 z M 173.67846,176.05932 188.53671,150 173.67846,123.94068 158.82021,97.881356 l -28.36462,0 c -21.23572,0 -28.69816,0.401879 -29.69168,1.599004 -0.72988,0.87945 -7.629929,12.60615 -15.333435,26.05932 L 71.424099,150 85.430475,174.46032 c 7.703506,13.45317 14.603555,25.17987 15.333435,26.05932 0.99352,1.19713 8.45596,1.599 29.69168,1.599 l 28.36462,0 14.85825,-26.05932 z m 43.77917,25.22877 c 0,-1.50211 -14.59865,-27.09239 -15.46803,-27.11422 -0.7517,-0.0189 -16.31163,26.15234 -16.31163,27.43555 0,0.28008 7.15042,0.50922 15.88983,0.50922 8.7394,0 15.88983,-0.37375 15.88983,-0.83055 z M 66.504237,112.67363 c 4.020127,-7.22214 7.309322,-13.504917 7.309322,-13.96172 0,-1.017286 -29.795101,-1.120199 -30.808885,-0.106415 -0.833146,0.833146 14.056353,27.252885 15.340861,27.220635 0.467159,-0.0117 4.138575,-5.93035 8.158702,-13.1525 z m 143.644073,0 c 4.02012,-7.22214 7.30932,-13.504917 7.30932,-13.96172 0,-0.456805 -7.15043,-0.830554 -15.88983,-0.830554 -8.73941,0 -15.88983,0.229148 -15.88983,0.509218 0,1.283218 15.55993,27.454436 16.31163,27.435556 0.46716,-0.0117 4.13858,-5.93035 8.15871,-13.1525 z M 145,74.465059 c 0,-0.47865 -13.83402,-24.922698 -14.68094,-25.940529 -0.19045,-0.228883 -2.76124,3.775355 -5.71285,8.898305 -2.95162,5.122948 -6.48156,11.173563 -7.84431,13.445809 L 114.28417,75 129.64208,75 C 138.08894,75 145,74.759277 145,74.465059 Z"
     id="path4161"
     inkscape:connector-curvature="0" />
  <path
     style="opacity:0;fill:#000000;fill-opacity:0;fill-rule:nonzero;stroke-width:100;stroke-miterlimit:4;stroke-dasharray:none"
     d="m 124.44836,288.16406 c -3.02922,-5.22886 -12.37209,-21.55836 -20.76192,-36.28777 l -15.254237,-26.78075 -42.902542,-0.0478 c -23.596398,-0.0263 -42.9025424,-0.31141 -42.9025424,-0.63364 0,-0.32225 9.4385594,-17.01111 20.9745764,-37.08637 C 35.137712,167.25249 44.576271,150.455 44.576271,150 c 0,-0.455 -9.438559,-17.25249 -20.974576,-37.32775 C 12.065678,92.596993 2.6271186,75.908129 2.6271186,75.58589 c 0,-0.32224 19.3061444,-0.606895 42.9025424,-0.632567 L 88.432203,74.906647 107.96127,40.678041 C 118.70225,21.852308 128.14081,5.5845153 128.93584,4.5273905 130.113,2.9621734 134.23553,9.3223116 151.14175,38.786106 l 20.76039,36.180762 42.90878,0.334363 42.90878,0.334362 L 236.34261,112.8178 214.96553,150 l 21.37708,37.1822 21.37709,37.18221 -42.90013,0.33434 -42.90013,0.33436 -20.62249,35.89446 c -11.34238,19.74196 -20.78415,36.0855 -20.98171,36.31899 -0.19755,0.23348 -2.83766,-3.85364 -5.86688,-9.0825 z M 137.83267,238.5646 C 141.77469,231.6925 145,225.82916 145,225.53494 145,225.24072 138.08894,225 129.64208,225 l -15.35791,0 2.47773,4.13136 c 1.36275,2.27224 4.89269,8.32286 7.84431,13.44581 2.95161,5.12294 5.5224,9.12718 5.71285,8.8983 0.19046,-0.22888 3.57157,-6.03877 7.51361,-12.91087 z M 73.813559,201.28809 c 0,-1.50211 -14.598653,-27.09239 -15.468024,-27.11422 -1.284508,-0.0323 -16.174007,26.38749 -15.340861,27.22063 1.013784,1.01378 30.808885,0.91088 30.808885,-0.10641 z M 173.67846,176.05932 188.53671,150 173.67846,123.94068 158.82021,97.881356 l -28.36462,0 c -21.23572,0 -28.69816,0.401879 -29.69168,1.599004 -0.72988,0.87945 -7.629929,12.60615 -15.333435,26.05932 L 71.424099,150 85.430475,174.46032 c 7.703506,13.45317 14.603555,25.17987 15.333435,26.05932 0.99352,1.19713 8.45596,1.599 29.69168,1.599 l 28.36462,0 14.85825,-26.05932 z m 43.77917,25.22877 c 0,-1.50211 -14.59865,-27.09239 -15.46803,-27.11422 -0.7517,-0.0189 -16.31163,26.15234 -16.31163,27.43555 0,0.28008 7.15042,0.50922 15.88983,0.50922 8.7394,0 15.88983,-0.37375 15.88983,-0.83055 z M 66.504237,112.67363 c 4.020127,-7.22214 7.309322,-13.504917 7.309322,-13.96172 0,-1.017286 -29.795101,-1.120199 -30.808885,-0.106415 -0.833146,0.833146 14.056353,27.252885 15.340861,27.220635 0.467159,-0.0117 4.138575,-5.93035 8.158702,-13.1525 z m 143.644073,0 c 4.02012,-7.22214 7.30932,-13.504917 7.30932,-13.96172 0,-0.456805 -7.15043,-0.830554 -15.88983,-0.830554 -8.73941,0 -15.88983,0.229148 -15.88983,0.509218 0,1.283218 15.55993,27.454436 16.31163,27.435556 0.46716,-0.0117 4.13858,-5.93035 8.15871,-13.1525 z M 145,74.465059 c 0,-0.47865 -13.83402,-24.922698 -14.68094,-25.940529 -0.19045,-0.228883 -2.76124,3.775355 -5.71285,8.898305 -2.95162,5.122948 -6.48156,11.173563 -7.84431,13.445809 L 114.28417,75 129.64208,75 C 138.08894,75 145,74.759277 145,74.465059 Z"
     id="path4163"
     inkscape:connector-curvature="0" />
</svg>
